<svg width="228" height="102" viewBox="0 0 228 102" fill="none" xmlns="http://www.w3.org/2000/svg">
<path fill-rule="evenodd" clip-rule="evenodd" d="M96 2.324C85.905 6.092 85.762 6.159 81.141 9.291C75.294 13.254 71.072 17.741 69.094 22.094C67.752 25.046 67.107 25.55 65.48 24.914C56.166 21.276 47.609 28.139 38.036 46.925C34.798 53.278 26.361 61.313 21.384 62.784C13.956 64.978 11.099 64.43 6.88497 60C2.59897 55.494 -0.0180303 54.826 0.0349697 58.25C0.13297 64.594 3.08697 76.532 5.43597 80.082C8.82297 85.201 16.713 89.602 25.013 91.002C30.453 91.92 32.875 91.841 38.369 90.567C42.059 89.711 46.362 88.347 47.931 87.536C50.689 86.109 50.821 86.154 51.954 88.889C55.622 97.744 70.633 100.519 83.356 94.695L88.829 92.189L91.043 94.546C93.927 97.615 103.771 100.949 112.127 101.685C121.121 102.478 131.906 99.294 136.797 94.403L140.224 90.976L143.362 92.9C147.595 95.496 157.955 97.402 163.961 96.691C172.69 95.657 177.058 92.527 186.554 80.503C191.492 74.25 194.533 71.464 199.044 69.059C202.795 67.059 215.469 65.096 223 65.349C228.972 65.549 229.356 62.876 223.5 61.865C215.492 60.484 208.231 56.935 201.016 50.878C193.186 44.303 187.138 41.057 182.654 41.022C181.089 41.01 178.614 40.18 177.154 39.178C172.245 35.807 164.166 33 159.315 32.98L154.5 32.96L151.302 26.151C148.942 21.124 146.289 17.628 141.169 12.798C131.387 3.571 125.504 1.008 112.686 0.388999C103.636 -0.047001 101.775 0.168998 96 2.324Z" fill="#666699"/>
<path fill-rule="evenodd" clip-rule="evenodd" d="M96.0001 2.324C85.9051 6.092 85.7621 6.159 81.1411 9.291C75.2941 13.254 71.0721 17.741 69.0941 22.094C67.7521 25.046 67.1071 25.55 65.4801 24.914C56.1661 21.276 47.6091 28.139 38.0361 46.925C34.7981 53.278 26.3611 61.313 21.3841 62.784C13.9561 64.978 11.0991 64.43 6.88511 60C4.79211 57.8 2.38711 56 1.54011 56C-0.353886 56 -0.364886 58.058 1.46911 68.351C3.16011 77.838 6.22011 82.872 12.5501 86.582C18.0571 89.81 28.9211 92.27 33.9031 91.418C38.8311 90.576 46.4301 88.375 48.8101 87.102C50.4851 86.205 50.9521 86.469 51.9511 88.883C55.6221 97.744 70.6291 100.521 83.3561 94.695L88.8291 92.189L90.9751 94.474C93.6861 97.359 104.665 101.057 112.5 101.723C120.816 102.431 131.6 99.186 136.598 94.472L140.273 91.006L143.387 92.894C145.099 93.932 148.885 95.281 151.799 95.891C167.013 99.075 174.519 95.752 186.556 80.503C196.069 68.452 202.113 65.668 219 65.556C225.804 65.511 227.5 65.205 227.5 64.023C227.5 63.038 225.905 62.279 222.712 61.744C215.289 60.499 207.952 56.785 200.605 50.552C193.282 44.34 187.097 41.056 182.654 41.022C181.089 41.01 178.614 40.18 177.154 39.178C172.204 35.778 164.173 33 159.3 33H154.471L151.266 26.122C148.819 20.87 146.38 17.687 140.943 12.653C130.929 3.382 125.452 1.005 112.686 0.388999C103.636 -0.047001 101.775 0.168998 96.0001 2.324Z" fill="#0000FF"/>
<path fill-rule="evenodd" clip-rule="evenodd" d="M96 2.324C85.905 6.092 85.762 6.159 81.141 9.291C75.294 13.254 71.072 17.741 69.094 22.094C67.752 25.046 67.107 25.55 65.48 24.914C56.166 21.276 47.609 28.139 38.036 46.925C34.798 53.278 26.361 61.313 21.384 62.784C13.956 64.978 11.099 64.43 6.885 60C3.016 55.932 0 54.819 0 57.459C0 63.098 2.595 74.404 4.846 78.569C8.182 84.743 15.13 89.126 24.244 90.805C31.847 92.206 42.159 90.661 48.749 87.134C50.5 86.197 50.938 86.436 51.951 88.883C55.63 97.763 71.209 100.616 83.315 94.625L88.468 92.074L90.984 94.458C94.206 97.511 104.791 101.089 112.5 101.733C120.822 102.427 131.609 99.177 136.598 94.472L140.273 91.006L143.387 92.894C145.099 93.932 148.885 95.281 151.799 95.891C167.013 99.075 174.519 95.752 186.556 80.503C196.069 68.452 202.113 65.668 219 65.556C225.804 65.511 227.5 65.205 227.5 64.023C227.5 63.038 225.905 62.279 222.712 61.744C215.289 60.499 207.952 56.785 200.605 50.552C193.106 44.191 187.086 41.055 182.309 41.022C180.554 41.01 178.875 40.607 178.578 40.126C177.207 37.908 166.04 33.653 160.134 33.098L153.769 32.5L151.743 27C150.191 22.787 147.926 19.726 142.062 13.919C131.608 3.566 126.117 1.037 112.686 0.388999C103.636 -0.047001 101.775 0.168998 96 2.324Z" fill="#99D5FF"/>
<path fill-rule="evenodd" clip-rule="evenodd" d="M96 2.324C85.905 6.092 85.762 6.159 81.141 9.291C75.294 13.254 71.072 17.741 69.094 22.094C67.752 25.046 67.107 25.55 65.48 24.914C56.166 21.276 47.609 28.139 38.036 46.925C34.798 53.278 26.361 61.313 21.384 62.784C13.956 64.978 11.099 64.43 6.885 60C3.016 55.932 0 54.819 0 57.459C0 63.098 2.595 74.404 4.846 78.569C8.182 84.743 15.13 89.126 24.244 90.805C31.847 92.206 42.159 90.661 48.749 87.134C50.5 86.197 50.938 86.436 51.951 88.883C55.63 97.763 71.209 100.616 83.315 94.625L88.468 92.074L90.984 94.458C94.206 97.511 104.791 101.089 112.5 101.733C120.822 102.427 131.609 99.177 136.598 94.472L140.273 91.006L143.387 92.894C145.099 93.932 148.885 95.281 151.799 95.891C167.013 99.075 174.519 95.752 186.556 80.503C196.069 68.452 202.113 65.668 219 65.556C225.804 65.511 227.5 65.205 227.5 64.023C227.5 63.038 225.905 62.279 222.712 61.744C215.289 60.499 207.952 56.785 200.605 50.552C193.106 44.191 187.086 41.055 182.309 41.022C180.554 41.01 178.875 40.607 178.578 40.126C177.207 37.908 166.04 33.653 160.134 33.098L153.769 32.5L151.743 27C150.191 22.787 147.926 19.726 142.062 13.919C131.608 3.566 126.117 1.037 112.686 0.388999C103.636 -0.047001 101.775 0.168998 96 2.324ZM126.826 6.575C133.358 9.499 144.793 20.292 147.856 26.426C150.925 32.571 151.672 39.799 149.644 43.721C147.386 48.088 140.565 53.617 135.133 55.484C128.503 57.763 115.86 58.599 112.029 57.012C105.405 54.268 102.72 45.435 107.25 41.289C108.487 40.157 110.513 38.923 111.75 38.548C114.816 37.618 114.594 36 111.4 36C109.776 36 107.523 37.277 105.4 39.4C101.511 43.289 101 47.091 103.623 52.619C107.026 59.789 114.908 62.24 127.625 60.082C140.957 57.82 150.761 50.611 153.283 41.215C154.124 38.082 155.053 36.774 156.737 36.351C159.577 35.638 166.954 37.426 172.185 40.094L176.1 42.092L173.55 45.123C170.599 48.629 170.202 53.557 172.51 58.02C174.386 61.647 177.182 63.2 181.837 63.2C186.292 63.2 190.273 59.169 189.805 55.13C189.402 51.656 187.586 51.754 187.181 55.272C186.533 60.919 178.856 62.488 175.477 57.663C173.435 54.749 173.587 48.682 175.75 46.733C180.744 42.232 187.406 43.822 196.743 51.743C200.312 54.771 205.075 58.294 207.327 59.574C209.907 61.039 210.882 62.053 209.962 62.314C209.158 62.541 206.297 63.254 203.605 63.898C196.127 65.688 189.66 70.623 182.879 79.714C174.884 90.434 170.197 93.243 160.404 93.187C151.788 93.137 146.161 91.383 142.682 87.663C139.898 84.687 139.658 84.611 138.612 86.384C135.757 91.222 132.499 94.043 127.708 95.824C117.191 99.735 110.033 99.48 98.343 94.776C91.17 91.889 90.138 90.335 92.33 85.717C94.428 81.297 94.479 74.661 92.441 71.55C89.289 66.739 78.765 64.519 73.072 67.463C69.823 69.143 69 70.785 69 75.582C69 80.266 70.601 79.896 71.379 75.032C72.111 70.454 74.115 68.999 79.684 69.002C89.396 69.006 93.841 75.049 90.195 83.293C87.736 88.851 82.512 92.575 75.238 93.955C65.358 95.829 57.253 92.836 54.24 86.201C53.316 84.165 52.443 82.322 52.3 82.104C52.158 81.886 49.22 83.011 45.771 84.604C40.316 87.123 38.329 87.499 30.5 87.491C22.722 87.483 20.821 87.124 16.5 84.849C8.831 80.811 6.048 76.672 4.605 67.156L3.946 62.813L6.608 64.906C10.37 67.866 18.852 67.749 25.5 64.647C31.91 61.656 36.314 56.707 42.519 45.522C50.636 30.892 58.07 24.853 63.931 28.129C66.195 29.395 66.559 30.363 67 36.298C67.71 45.86 69.393 45.144 70.052 35C70.928 21.509 75.317 15.359 88.638 8.955C101.884 2.588 115.959 1.711 126.826 6.575Z" fill="#4784AE"/>
</svg>
