<?xml version="1.0" encoding="UTF-8"?>
<svg id="Livello_1" data-name="Livello 1" xmlns="http://www.w3.org/2000/svg" viewBox="0 0 74.63 129.58">
  <defs>
    <style>
      .cls-1 {
        stroke: #438bbc;
        stroke-width: 2px;
      }

      .cls-1, .cls-2 {
        fill: none;
        stroke-miterlimit: 10;
      }

      .cls-2 {
        stroke: #8fd3f6;
        stroke-width: 8px;
      }

      .cls-3 {
        fill: #438bbc;
      }
    </style>
  </defs>
  <path class="cls-1" d="M14.32,125.8C-.35,113.25-3.18,91.76,7.22,76.51c11.67-17.11,36.21-20.79,52.22-8.74,16.84,12.67,19.44,39.13,3.71,55.93-5.6,2.03-13.83,4.32-24,4.79-10.41.48-19-1.13-24.82-2.69Z"/>
  <path class="cls-1" d="M13.76,125.67c5.96-2.05,14.67-4.32,25.36-4.64,9.91-.3,18.17,1.17,24.03,2.68"/>
  <circle class="cls-3" cx="36.22" cy="56.68" r="3.7"/>
  <line class="cls-1" x1="35.87" y1="53.65" x2="35.87"/>
  <line class="cls-1" x1="36.22" y1="83.13" x2="36.22" y2="60.72"/>
  <path class="cls-2" d="M63.15,109.14c-2.86-4.19-5.1-4.87-6.59-4.75-2.93.23-4.14,3.65-6.39,2.64-2.01-.91-2.02-4.08-4.38-5.89-1.83-1.4-3.78-1-5.15-.46"/>
  <path class="cls-2" d="M55.03,92.09c-2.86-4.19-5.1-4.87-6.59-4.75-2.93.23-4.14,3.65-6.39,2.64-2.01-.91-2.02-4.08-4.38-5.89-1.83-1.4-3.78-1-5.15-.46"/>
  <path class="cls-2" d="M42.82,115.09c-2.86-4.19-5.1-4.87-6.59-4.75-2.93.23-4.14,3.65-6.39,2.64-2.01-.91-2.02-4.08-4.38-5.89-1.83-1.4-3.78-1-5.15-.46"/>
  <path class="cls-2" d="M32.52,97.3c-2.86-4.19-5.1-4.87-6.59-4.75-2.93.23-4.14,3.65-6.39,2.64-2.01-.91-2.02-4.08-4.38-5.89-1.83-1.4-3.78-1-5.15-.46"/>
  <path class="cls-2" d="M60.35,79.03c-2.86-4.19-5.1-4.87-6.59-4.75-2.93.23-4.14,3.65-6.39,2.64-2.01-.91-2.02-4.08-4.38-5.89-1.83-1.4-3.78-1-5.15-.46"/>
  <path class="cls-2" d="M27.08,75.46c-2.86-4.19-5.1-4.87-6.59-4.75-2.93.23-4.14,3.65-6.39,2.64"/>
</svg>