<?xml version="1.0" encoding="UTF-8"?>
<svg id="logo" xmlns="http://www.w3.org/2000/svg" viewBox="0 0 148.62 117.41">
  <defs>
    <style>
      .cls-1 {
        fill: #438bbc;
        font-family: IowanOldStyle-Roman, 'Iowan Old Style';
        font-size: 85px;
      }

      .cls-2, .cls-3 {
        fill: none;
      }

      .cls-2, .cls-3, .cls-4, .cls-5 {
        stroke: #438bbc;
        stroke-miterlimit: 10;
      }

      .cls-3, .cls-5 {
        stroke-width: .5px;
      }

      .cls-4 {
        fill: #448bbc;
      }

      .cls-5 {
        fill: #fff;
      }
    </style>
  </defs>
  <text class="cls-1" transform="translate(0 78.56)"><tspan x="0" y="0">M</tspan></text>
  <text class="cls-1" transform="translate(53.89 78.56)"><tspan x="0" y="0">H</tspan></text>
  <path class="cls-2" d="M107.54,72.28c3.68-.69,10.99-2.62,17.45-8.69,5.47-5.14,7.76-10.83,9.1-14.25,1.15-2.95,3.13-8.12,3.03-14.86-.16-10.47-5.23-18.14-7.71-21.38"/>
  <path class="cls-2" d="M124.69,63.89c2.18-2.12,4.11-3.82,5.63-5.1,2.4-2.04,3.64-2.91,4.99-3.69,1.29-.75,2.43-1.26,3.24-1.59"/>
  <path class="cls-2" d="M135.32,45.7c.32-1.41,1.07-3.88,2.98-6.38,2.05-2.69,4.44-4.09,5.75-4.75"/>
  <path class="cls-2" d="M136.64,27.88c0-1.78,0-4.6.03-8.17.02-2.78.04-4.2.62-6,.64-1.99,1.64-3.45,2.37-4.37"/>
  <path class="cls-2" d="M136.89,30.45c-.05-1.21.03-2.81.5-4.6.93-3.51,2.88-5.84,4-7"/>
  <g>
    <path class="cls-3" d="M143.79,34.21c.01-1.62,1.05-2.71,1.98-2.69.68.01,1.49.63,1.56,1.41.09,1-1.1,1.61-1.27,1.7-.66.34-1.3.29-1.58.25-.14-.09-.27-.18-.41-.27-.09-.13-.18-.27-.28-.4Z"/>
    <path class="cls-3" d="M146.02,33.45c.13-.02.41-.1.68-.34.29-.27.39-.58.42-.71"/>
    <circle class="cls-4" cx="144.54" cy="34.14" r=".3"/>
  </g>
  <g>
    <path class="cls-3" d="M140.88,18.68c.01-1.62,1.05-2.71,1.98-2.69.68.01,1.49.63,1.56,1.41.09,1-1.1,1.61-1.27,1.7-.66.34-1.3.29-1.58.25-.14-.09-.27-.18-.41-.27-.09-.13-.18-.27-.28-.4Z"/>
    <path class="cls-3" d="M143.1,17.92c.13-.02.41-.1.68-.34.29-.27.39-.58.42-.71"/>
    <circle class="cls-4" cx="141.63" cy="18.61" r=".3"/>
  </g>
  <g>
    <g>
      <path class="cls-5" d="M122.91,7.13c-.18-.2-.46-.51-.82-.86-.58-.58-.75-.67-1.12-1.05-.78-.8-1.2-1.24-1.14-1.75.08-.63.85-1.16,1.48-1.3.41-.09.57.02.86-.15.47-.28.37-.76.74-1.09.44-.4,1.34-.44,1.88-.07.56.38.44,1.02.98,3.47.1.44.19.8.24,1.03"/>
      <path class="cls-5" d="M126.01,5.45c.13-.24.32-.6.54-1.06.35-.74.38-.93.61-1.41.49-1.01.76-1.55,1.26-1.66.62-.14,1.38.41,1.72.95.22.35.17.54.43.76.42.35.84.09,1.28.33.52.28.86,1.11.7,1.74-.17.65-.81.76-2.94,2.09-.38.24-.69.45-.89.58"/>
      <path class="cls-5" d="M128.72,7.61c.25.1.64.24,1.12.39.78.25.97.25,1.48.42,1.06.35,1.64.55,1.81,1.03.22.59-.22,1.42-.72,1.83-.32.27-.51.24-.69.52-.29.46.02.84-.15,1.31-.2.55-.99,1-1.64.92-.67-.08-.86-.71-2.46-2.64-.29-.35-.53-.63-.69-.8"/>
      <path class="cls-5" d="M126.68,10.6c.05.27.14.67.27,1.16.21.79.31.96.44,1.47.27,1.09.42,1.67.1,2.09-.38.5-1.32.58-1.93.38-.4-.13-.48-.3-.82-.3-.54,0-.7.47-1.19.57-.58.12-1.38-.3-1.66-.88-.29-.61.13-1.1.9-3.49.14-.43.24-.79.31-1.01"/>
      <path class="cls-5" d="M122.92,10.49c-.26.07-.66.17-1.14.33-.78.25-.94.36-1.45.51-1.07.32-1.65.5-2.08.21-.52-.36-.64-1.29-.48-1.91.11-.4.28-.49.26-.83-.03-.54-.5-.67-.63-1.16-.15-.57.23-1.39.8-1.7.6-.32,1.11.08,3.53.73.44.12.8.2,1.02.26"/>
    </g>
    <path class="cls-5" d="M123.41,4.53c.34.45.69.95,1.04,1.51.34.54.63,1.06.88,1.55"/>
    <path class="cls-5" d="M126.65,8.86c.47.31.96.67,1.47,1.08.49.4.94.79,1.34,1.17"/>
    <path class="cls-5" d="M121.42,8.54c.56-.06,1.17-.09,1.83-.1.63,0,1.23.01,1.78.05"/>
    <path class="cls-5" d="M125.43,9.58c-.14.55-.31,1.13-.53,1.75-.21.6-.44,1.15-.66,1.65"/>
    <path class="cls-5" d="M129.09,5.26c-.4.39-.86.8-1.37,1.22-.49.4-.97.75-1.42,1.06"/>
  </g>
  <g>
    <g>
      <path class="cls-5" d="M139.22,6.07c-.16-.18-.41-.45-.73-.77-.52-.51-.67-.6-1-.93-.7-.72-1.07-1.1-1.01-1.56.07-.56.76-1.03,1.32-1.16.36-.08.5.02.76-.13.42-.25.33-.67.66-.97.39-.35,1.19-.39,1.67-.06.5.34.39.91.87,3.09.09.39.17.71.22.92"/>
      <path class="cls-5" d="M141.98,4.57c.12-.21.29-.54.48-.95.31-.66.34-.83.54-1.25.44-.9.67-1.38,1.13-1.48.55-.12,1.23.36,1.54.85.2.31.15.48.38.67.37.31.74.08,1.14.29.46.25.77.99.62,1.55-.15.58-.72.67-2.62,1.87-.34.22-.62.4-.79.51"/>
      <path class="cls-5" d="M144.39,6.5c.22.09.57.21,1,.35.69.22.87.22,1.31.37.95.32,1.46.49,1.62.92.19.53-.2,1.26-.64,1.63-.28.24-.46.21-.62.47-.26.41.02.75-.14,1.17-.18.49-.88.89-1.46.82-.6-.08-.76-.63-2.19-2.35-.26-.31-.47-.56-.61-.71"/>
      <path class="cls-5" d="M142.57,9.16c.05.24.13.6.24,1.03.19.7.28.85.39,1.31.24.97.37,1.49.09,1.86-.34.45-1.17.51-1.72.34-.35-.11-.42-.27-.73-.27-.49,0-.62.42-1.06.51-.51.11-1.23-.27-1.47-.79-.26-.55.12-.98.8-3.11.12-.38.22-.7.27-.9"/>
      <path class="cls-5" d="M139.22,9.06c-.23.06-.59.15-1.02.29-.69.22-.84.32-1.29.46-.96.29-1.47.45-1.85.18-.46-.32-.57-1.15-.42-1.7.09-.36.25-.44.23-.74-.03-.48-.45-.6-.56-1.03-.14-.51.2-1.24.72-1.51.53-.28.99.07,3.15.65.39.1.71.18.91.23"/>
    </g>
    <path class="cls-5" d="M139.66,3.75c.3.4.61.85.92,1.34.3.48.56.94.78,1.38"/>
    <path class="cls-5" d="M142.55,7.61c.42.28.86.6,1.31.97.44.35.84.71,1.19,1.04"/>
    <path class="cls-5" d="M137.89,7.32c.5-.05,1.04-.08,1.63-.09.57,0,1.09.01,1.58.05"/>
    <path class="cls-5" d="M141.46,8.25c-.13.49-.28,1.01-.47,1.56-.19.53-.39,1.02-.59,1.47"/>
    <path class="cls-5" d="M144.72,4.4c-.36.35-.77.71-1.22,1.08-.44.36-.86.67-1.27.95"/>
  </g>
</svg>