<svg width="31" height="31" viewBox="0 0 31 31" fill="none" xmlns="http://www.w3.org/2000/svg">
<g opacity="0.66">
<path d="M30.2098 14.1383L16.8614 0.790395C16.0932 0.0216914 14.8464 0.0216914 14.077 0.790395L11.3054 3.56247L14.8215 7.07855C15.6388 6.8027 16.5756 6.98773 17.2269 7.63897C17.8815 8.29433 18.0651 9.23911 17.7824 10.0592L21.1711 13.4481C21.9909 13.1654 22.9372 13.3481 23.5916 14.0039C24.507 14.9186 24.507 16.4016 23.5916 17.3168C23.374 17.5344 23.1157 17.7071 22.8314 17.8249C22.5471 17.9427 22.2424 18.0033 21.9346 18.0033C21.6269 18.0033 21.3222 17.9427 21.0379 17.8249C20.7536 17.7071 20.4952 17.5344 20.2777 17.3168C19.9509 16.9897 19.7282 16.5732 19.6375 16.1199C19.5467 15.6665 19.5921 15.1964 19.7679 14.7687L16.6078 11.6087L16.6073 19.9256C16.8366 20.0385 17.046 20.188 17.2271 20.3683C18.1421 21.2831 18.1421 22.7655 17.2271 23.6822C16.3119 24.5969 14.8285 24.5969 13.9142 23.6822C12.9992 22.7658 12.9992 21.2833 13.9142 20.3683C14.1336 20.149 14.3943 19.9754 14.6812 19.8573V11.4634C14.394 11.3458 14.1332 11.172 13.9142 10.9521C13.2211 10.2594 13.0542 9.24225 13.4097 8.39072L9.94331 4.92429L0.790564 14.0766C0.421305 14.4459 0.213867 14.9468 0.213867 15.4691C0.213867 15.9914 0.421305 16.4923 0.790564 16.8617L14.1392 30.2096C14.9079 30.9783 16.1542 30.9783 16.9241 30.2096L30.21 16.9237C30.5792 16.5542 30.7866 16.0533 30.7865 15.531C30.7865 15.0087 30.5791 14.5077 30.2098 14.1383Z" fill="#F34F29"/>
</g>
</svg>
