<svg width="31" height="31" viewBox="0 0 31 31" fill="none" xmlns="http://www.w3.org/2000/svg">
<g opacity="0.66">
<path d="M4.55605 27.6394L2.12109 0.327637H28.878L26.4406 27.6352L15.4833 30.673L4.55605 27.6394Z" fill="#1572B6"/>
<path d="M15.5 28.3511L24.3541 25.8963L26.4372 2.56055H15.5V28.3511Z" fill="#33A9DC"/>
<path d="M15.5 12.4556H19.9325L20.2386 9.02548H15.5V5.67578H23.8995L23.8191 6.57454L22.9957 15.8053H15.5V12.4556Z" fill="white"/>
<path d="M15.5196 21.1549L15.5048 21.1593L11.7744 20.152L11.5359 17.4805H8.17383L8.64295 22.7401L15.5044 24.6444L15.5196 24.64V21.1549Z" fill="#EBEBEB"/>
<path d="M19.6483 15.6636L19.2448 20.1494L15.5088 21.1578V24.6429L22.3758 22.7398L22.4261 22.1738L23.0089 15.6636H19.6483Z" fill="white"/>
<path d="M15.5119 5.67578V9.02548H7.42092L7.35384 8.27276L7.20126 6.57454L7.12109 5.67578H15.5119ZM15.5005 12.4561V15.8058H11.8171L11.75 15.053L11.5972 13.3548L11.5173 12.4561H15.5005Z" fill="#EBEBEB"/>
</g>
</svg>
