<svg width="31" height="16" viewBox="0 0 31 16" fill="none" xmlns="http://www.w3.org/2000/svg">
<g opacity="0.66">
<path d="M15.1704 15.9526C23.5487 15.9526 30.3407 12.3815 30.3407 7.9763C30.3407 3.57111 23.5487 0 15.1704 0C6.79201 0 0 3.57111 0 7.9763C0 12.3815 6.79201 15.9526 15.1704 15.9526Z" fill="url(#paint0_radial_287_163)"/>
<path d="M15.1706 15.3602C23.2216 15.3602 29.7483 12.0544 29.7483 7.97648C29.7483 3.89857 23.2216 0.592773 15.1706 0.592773C7.11947 0.592773 0.592773 3.89857 0.592773 7.97648C0.592773 12.0544 7.11947 15.3602 15.1706 15.3602Z" fill="#6181B6"/>
<path d="M18.1214 10.3704L18.8444 6.6489C19.0103 5.80742 18.8681 5.17927 18.4414 4.78816C18.0266 4.4089 17.3155 4.21927 16.2725 4.21927H15.0162L15.3718 2.37038C15.3837 2.29927 15.3718 2.22816 15.3244 2.1689C15.277 2.10964 15.2177 2.08594 15.1466 2.08594H13.4162C13.2977 2.08594 13.2029 2.1689 13.1792 2.27557L12.4088 6.22223C12.3377 5.77186 12.1718 5.3926 11.8874 5.08446C11.3777 4.50372 10.5837 4.20742 9.50513 4.20742H6.17476C6.05624 4.20742 5.96143 4.29038 5.93773 4.39705L4.38513 12.4089C4.37328 12.48 4.38513 12.5511 4.43254 12.6104C4.47995 12.6696 4.53921 12.6933 4.61032 12.6933H6.35254C6.47106 12.6933 6.56587 12.6104 6.58958 12.5037L6.96884 10.5719H8.26069C8.93624 10.5719 9.51699 10.5008 9.9555 10.3585C10.4177 10.2045 10.8325 9.95557 11.1999 9.61186C11.4962 9.33927 11.7451 9.03112 11.9348 8.69927L11.6266 10.2993C11.6148 10.3704 11.6266 10.4415 11.674 10.5008C11.7214 10.56 11.7807 10.5837 11.8518 10.5837H13.5822C13.7007 10.5837 13.7955 10.5008 13.8192 10.3941L14.6725 6.0089H15.8577C16.3674 6.0089 16.5096 6.10372 16.557 6.15112C16.5925 6.18668 16.6637 6.3289 16.5807 6.76742L15.8933 10.3111C15.8814 10.3822 15.8933 10.4533 15.9407 10.5126C15.9881 10.5719 16.0474 10.5956 16.1185 10.5956H17.8962C18.0029 10.56 18.0977 10.477 18.1214 10.3704ZM10.1096 7.2889C10.0029 7.84594 9.80143 8.2489 9.50513 8.47409C9.20884 8.69927 8.72291 8.81779 8.08291 8.81779H7.31254L7.86958 5.94964H8.86513C9.59995 5.94964 9.89625 6.10372 10.0148 6.23409C10.1688 6.42372 10.2044 6.79112 10.1096 7.2889ZM25.517 5.08446C25.0074 4.50372 24.2133 4.20742 23.1348 4.20742H19.7807C19.6622 4.20742 19.5674 4.29038 19.5437 4.39705L17.9911 12.397C17.9792 12.4682 17.9911 12.5393 18.0385 12.5985C18.0859 12.6578 18.1451 12.6815 18.2162 12.6815H19.9585C20.077 12.6815 20.1718 12.5985 20.1955 12.4919L20.5748 10.56H21.8666C22.5422 10.56 23.1229 10.4889 23.5614 10.3467C24.0237 10.1926 24.4385 9.94372 24.8059 9.60001C25.114 9.31557 25.3748 8.99557 25.5644 8.65186C25.754 8.30816 25.8962 7.9289 25.9792 7.51409C26.1807 6.48298 26.0266 5.67705 25.517 5.08446ZM23.7037 7.2889C23.597 7.84594 23.3955 8.2489 23.0992 8.47409C22.8029 8.69927 22.317 8.81779 21.677 8.81779H20.9066L21.4637 5.94964H22.4592C23.194 5.94964 23.4903 6.10372 23.6088 6.23409C23.7748 6.42372 23.8103 6.79112 23.7037 7.2889Z" fill="white"/>
<path d="M8.86503 5.71238C9.52874 5.71238 9.96726 5.8309 10.1924 6.07979C10.4176 6.32868 10.465 6.74349 10.3465 7.33609C10.228 7.95238 9.99096 8.40275 9.64726 8.6635C9.30355 8.92424 8.78207 9.05461 8.08281 9.05461H7.028L7.67985 5.71238H8.86503ZM4.62207 12.4442H6.36429L6.77911 10.3228H8.27244C8.93614 10.3228 9.46948 10.2516 9.89614 10.1094C10.3228 9.9672 10.7021 9.74201 11.0576 9.41016C11.3539 9.13757 11.591 8.84127 11.7687 8.52127C11.9465 8.20127 12.0769 7.84572 12.148 7.45461C12.3376 6.50646 12.1954 5.77164 11.7332 5.23831C11.271 4.70498 10.5361 4.44424 9.52874 4.44424H6.17466L4.62207 12.4442ZM13.428 2.32275H15.1584L14.7436 4.44424H16.2843C17.2561 4.44424 17.9198 4.61016 18.2873 4.95387C18.6547 5.29757 18.7613 5.84275 18.6191 6.60127L17.8961 10.3228H16.1421L16.8295 6.77905C16.9124 6.37609 16.8769 6.10349 16.7465 5.96127C16.6161 5.81905 16.3198 5.73609 15.8813 5.73609H14.4947L13.6058 10.3228H11.8754L13.428 2.32275ZM22.4591 5.71238C23.1228 5.71238 23.5613 5.8309 23.7865 6.07979C24.0117 6.32868 24.0591 6.74349 23.9406 7.33609C23.8221 7.95238 23.585 8.40275 23.2413 8.6635C22.8976 8.92424 22.3761 9.05461 21.6769 9.05461H20.6221L21.2739 5.71238H22.4591ZM18.2161 12.4442H19.9584L20.3732 10.3228H21.8665C22.5302 10.3228 23.0636 10.2516 23.4902 10.1094C23.9169 9.9672 24.2961 9.74201 24.6517 9.41016C24.948 9.13757 25.185 8.84127 25.3628 8.52127C25.5406 8.20127 25.671 7.84572 25.7421 7.45461C25.9317 6.50646 25.7895 5.77164 25.3273 5.23831C24.865 4.70498 24.1302 4.44424 23.1228 4.44424H19.7687L18.2161 12.4442Z" fill="#000004"/>
</g>
<defs>
<radialGradient id="paint0_radial_287_163" cx="0" cy="0" r="1" gradientUnits="userSpaceOnUse" gradientTransform="translate(9.10833 2.80504) scale(19.9224)">
<stop stop-color="white"/>
<stop offset="0.5" stop-color="#4C6B97"/>
<stop offset="1" stop-color="#231F20"/>
</radialGradient>
</defs>
</svg>
