<?xml version="1.0" encoding="UTF-8"?>
<svg id="Livello_1" data-name="Livello 1" xmlns="http://www.w3.org/2000/svg" xmlns:xlink="http://www.w3.org/1999/xlink" viewBox="0 0 26.75 205.48">
  <defs>
    <style>
      .cls-1 {
        fill: none;
      }

      .cls-1, .cls-2 {
        stroke-width: 2px;
      }

      .cls-1, .cls-2, .cls-3 {
        stroke: #438bbc;
        stroke-miterlimit: 10;
      }

      .cls-2 {
        fill: #fff;
      }

      .cls-4 {
        fill: #438bbc;
      }

      .cls-5 {
        fill: #feffff;
      }

      .cls-3 {
        fill: url(#Sfumatura_senza_nome_18);
      }
    </style>
    <linearGradient id="Sfumatura_senza_nome_18" data-name="Sfumatura senza nome 18" x1="13.37" y1="204.94" x2="13.37" y2="83.56" gradientUnits="userSpaceOnUse">
      <stop offset="0" stop-color="#438bbc"/>
      <stop offset=".04" stop-color="#4890c0"/>
      <stop offset=".3" stop-color="#67add7"/>
      <stop offset=".54" stop-color="#7dc2e8"/>
      <stop offset=".78" stop-color="#8acef2"/>
      <stop offset="1" stop-color="#8fd3f6"/>
    </linearGradient>
  </defs>
  <circle class="cls-4" cx="13.37" cy="67.8" r="3.7"/>
  <path class="cls-1" d="M13.34,89.95c.32-6.59.65-13.18.97-19.77"/>
  <path class="cls-1" d="M11.76,90.47c-.53-2.4-.98-5.41-1-8.89-.02-4.65.73-8.55,1.52-11.4"/>
  <rect class="cls-4" x="11.35" width="4.05" height="66.49"/>
  <polygon class="cls-3" points="26.25 203.02 .5 204.94 .5 84.32 26.25 83.56 26.25 203.02"/>
  <path class="cls-2" d="M17.06,94.84c0,2.96-1.85,5.42-4.14,5.5s-4.16-2.26-4.16-5.22c0-2.97,1.86-5.43,4.16-5.5s4.14,2.26,4.14,5.22Z"/>
  <g>
    <ellipse class="cls-5" cx="3.31" cy="195.66" rx=".74" ry=".93"/>
    <ellipse class="cls-5" cx="4.24" cy="196" rx=".93" ry=".74" transform="translate(-159.58 88.31) rotate(-55.44)"/>
    <ellipse class="cls-5" cx="4.2" cy="196.89" rx=".93" ry=".74" transform="translate(-31.36 3.19) rotate(-9.18)"/>
    <ellipse class="cls-5" cx="4.2" cy="196.89" rx=".74" ry=".93" transform="translate(-184.01 138.91) rotate(-71.65)"/>
    <ellipse class="cls-5" cx="3.37" cy="197.19" rx=".74" ry=".93"/>
    <ellipse class="cls-5" cx="2.82" cy="196.85" rx=".93" ry=".74" transform="translate(-117.75 41.21) rotate(-36.94)"/>
    <ellipse class="cls-5" cx="2.69" cy="196.04" rx=".74" ry=".93" transform="translate(-151.2 74.56) rotate(-50.93)"/>
  </g>
  <g>
    <ellipse class="cls-5" cx="7.59" cy="196.59" rx=".74" ry=".93"/>
    <ellipse class="cls-5" cx="8.52" cy="196.93" rx=".93" ry=".74" transform="translate(-158.49 92.24) rotate(-55.44)"/>
    <ellipse class="cls-5" cx="8.48" cy="197.82" rx=".93" ry=".74" transform="translate(-31.45 3.89) rotate(-9.18)"/>
    <ellipse class="cls-5" cx="8.48" cy="197.82" rx=".74" ry=".93" transform="translate(-181.95 143.61) rotate(-71.65)"/>
    <ellipse class="cls-5" cx="7.65" cy="198.12" rx=".74" ry=".93"/>
    <ellipse class="cls-5" cx="7.1" cy="197.78" rx=".93" ry=".74" transform="translate(-117.44 43.97) rotate(-36.94)"/>
    <ellipse class="cls-5" cx="6.98" cy="196.97" rx=".74" ry=".93" transform="translate(-150.34 78.23) rotate(-50.93)"/>
  </g>
  <g>
    <ellipse class="cls-5" cx="6.15" cy="191.54" rx=".74" ry=".93"/>
    <ellipse class="cls-5" cx="7.08" cy="191.89" rx=".93" ry=".74" transform="translate(-154.97 88.87) rotate(-55.44)"/>
    <ellipse class="cls-5" cx="7.04" cy="192.78" rx=".93" ry=".74" transform="translate(-30.66 3.59) rotate(-9.18)"/>
    <ellipse class="cls-5" cx="7.04" cy="192.78" rx=".74" ry=".93" transform="translate(-178.16 138.78) rotate(-71.65)"/>
    <ellipse class="cls-5" cx="6.21" cy="193.08" rx=".74" ry=".93"/>
    <ellipse class="cls-5" cx="5.65" cy="192.74" rx=".93" ry=".74" transform="translate(-114.7 42.09) rotate(-36.94)"/>
    <ellipse class="cls-5" cx="5.53" cy="191.92" rx=".74" ry=".93" transform="translate(-146.95 75.25) rotate(-50.93)"/>
  </g>
  <g>
    <ellipse class="cls-5" cx="11.71" cy="193.71" rx=".74" ry=".93"/>
    <ellipse class="cls-5" cx="12.64" cy="194.05" rx=".93" ry=".74" transform="translate(-154.34 94.39) rotate(-55.44)"/>
    <ellipse class="cls-5" cx="12.6" cy="194.94" rx=".93" ry=".74" transform="translate(-30.94 4.51) rotate(-9.18)"/>
    <ellipse class="cls-5" cx="12.6" cy="194.94" rx=".74" ry=".93" transform="translate(-176.4 145.54) rotate(-71.65)"/>
    <path class="cls-5" d="M12.51,195.24c0,.51-.33.93-.74.93s-.74-.42-.74-.93.33-.93.74-.93.74.42.74.93Z"/>
    <ellipse class="cls-5" cx="11.21" cy="194.9" rx=".93" ry=".74" transform="translate(-114.89 45.87) rotate(-36.94)"/>
    <ellipse class="cls-5" cx="11.09" cy="194.09" rx=".74" ry=".93" transform="translate(-146.58 80.36) rotate(-50.93)"/>
  </g>
  <g>
    <ellipse class="cls-5" cx="10.06" cy="188.78" rx=".74" ry=".93"/>
    <ellipse class="cls-5" cx="10.99" cy="189.12" rx=".93" ry=".74" transform="translate(-151 90.9) rotate(-55.44)"/>
    <ellipse class="cls-5" cx="10.95" cy="190.01" rx=".93" ry=".74" transform="translate(-30.17 4.18) rotate(-9.18)"/>
    <ellipse class="cls-5" cx="10.95" cy="190.01" rx=".74" ry=".93" transform="translate(-172.85 140.6) rotate(-71.65)"/>
    <path class="cls-5" d="M10.86,190.31c0,.51-.33.93-.74.93s-.74-.42-.74-.93.33-.93.74-.93.74.42.74.93Z"/>
    <ellipse class="cls-5" cx="9.57" cy="189.97" rx=".93" ry=".74" transform="translate(-112.26 43.89) rotate(-36.94)"/>
    <ellipse class="cls-5" cx="9.44" cy="189.16" rx=".74" ry=".93" transform="translate(-143.36 77.26) rotate(-50.93)"/>
  </g>
  <g>
    <ellipse class="cls-5" cx="15.97" cy="191.54" rx=".74" ry=".93"/>
    <ellipse class="cls-5" cx="16.9" cy="191.89" rx=".93" ry=".74" transform="translate(-150.71 96.96) rotate(-55.44)"/>
    <ellipse class="cls-5" cx="16.86" cy="192.78" rx=".93" ry=".74" transform="translate(-30.54 5.16) rotate(-9.18)"/>
    <ellipse class="cls-5" cx="16.86" cy="192.78" rx=".74" ry=".93" transform="translate(-171.43 148.1) rotate(-71.65)"/>
    <path class="cls-5" d="M16.77,193.08c0,.51-.33.93-.74.93s-.74-.42-.74-.93.33-.93.74-.93.74.42.74.93Z"/>
    <ellipse class="cls-5" cx="15.47" cy="192.74" rx=".93" ry=".74" transform="translate(-112.73 47.99) rotate(-36.94)"/>
    <ellipse class="cls-5" cx="15.35" cy="191.92" rx=".74" ry=".93" transform="translate(-143.32 82.87) rotate(-50.93)"/>
  </g>
  <g>
    <ellipse class="cls-5" cx="2.73" cy="187.37" rx=".74" ry=".93"/>
    <ellipse class="cls-5" cx="3.66" cy="187.71" rx=".93" ry=".74" transform="translate(-153.01 84.24) rotate(-55.44)"/>
    <ellipse class="cls-5" cx="3.62" cy="188.6" rx=".93" ry=".74" transform="translate(-30.04 2.99) rotate(-9.18)"/>
    <ellipse class="cls-5" cx="3.62" cy="188.6" rx=".74" ry=".93" transform="translate(-176.54 132.67) rotate(-71.65)"/>
    <path class="cls-5" d="M3.52,188.9c0,.51-.33.93-.74.93s-.74-.42-.74-.93.33-.93.74-.93.74.42.74.93Z"/>
    <ellipse class="cls-5" cx="2.23" cy="188.56" rx=".93" ry=".74" transform="translate(-112.88 39.2) rotate(-36.94)"/>
    <ellipse class="cls-5" cx="2.11" cy="187.75" rx=".74" ry=".93" transform="translate(-144.98 71.05) rotate(-50.93)"/>
  </g>
  <g>
    <ellipse class="cls-5" cx="9.15" cy="183.72" rx=".74" ry=".93"/>
    <ellipse class="cls-5" cx="10.08" cy="184.06" rx=".93" ry=".74" transform="translate(-147.22 87.96) rotate(-55.44)"/>
    <ellipse class="cls-5" cx="10.04" cy="184.95" rx=".93" ry=".74" transform="translate(-29.38 3.97) rotate(-9.18)"/>
    <ellipse class="cls-5" cx="10.04" cy="184.95" rx=".74" ry=".93" transform="translate(-168.67 136.27) rotate(-71.65)"/>
    <ellipse class="cls-5" cx="9.21" cy="185.25" rx=".74" ry=".93"/>
    <ellipse class="cls-5" cx="8.66" cy="184.92" rx=".93" ry=".74" transform="translate(-109.4 42.33) rotate(-36.94)"/>
    <ellipse class="cls-5" cx="8.54" cy="184.1" rx=".74" ry=".93" transform="translate(-139.77 74.69) rotate(-50.93)"/>
  </g>
  <g>
    <ellipse class="cls-5" cx="20.49" cy="188.29" rx=".74" ry=".93"/>
    <ellipse class="cls-5" cx="21.42" cy="188.64" rx=".93" ry=".74" transform="translate(-146.09 99.27) rotate(-55.44)"/>
    <ellipse class="cls-5" cx="21.38" cy="189.53" rx=".93" ry=".74" transform="translate(-29.96 5.84) rotate(-9.18)"/>
    <ellipse class="cls-5" cx="21.38" cy="189.53" rx=".74" ry=".93" transform="translate(-165.25 150.17) rotate(-71.65)"/>
    <ellipse class="cls-5" cx="20.55" cy="189.83" rx=".74" ry=".93"/>
    <ellipse class="cls-5" cx="19.99" cy="189.49" rx=".93" ry=".74" transform="translate(-109.87 50.06) rotate(-36.94)"/>
    <ellipse class="cls-5" cx="19.87" cy="188.68" rx=".74" ry=".93" transform="translate(-139.13 85.18) rotate(-50.93)"/>
  </g>
  <g>
    <ellipse class="cls-5" cx="21.85" cy="183.03" rx=".74" ry=".93"/>
    <ellipse class="cls-5" cx="22.78" cy="183.38" rx=".93" ry=".74" transform="translate(-141.16 98.12) rotate(-55.44)"/>
    <ellipse class="cls-5" cx="22.74" cy="184.27" rx=".93" ry=".74" transform="translate(-29.11 5.99) rotate(-9.18)"/>
    <ellipse class="cls-5" cx="22.74" cy="184.27" rx=".74" ry=".93" transform="translate(-159.32 147.86) rotate(-71.65)"/>
    <path class="cls-5" d="M22.65,184.57c0,.51-.33.93-.74.93s-.74-.42-.74-.93.33-.93.74-.93.74.42.74.93Z"/>
    <ellipse class="cls-5" cx="21.36" cy="184.23" rx=".93" ry=".74" transform="translate(-106.44 49.82) rotate(-36.94)"/>
    <ellipse class="cls-5" cx="21.23" cy="183.42" rx=".74" ry=".93" transform="translate(-134.54 84.29) rotate(-50.93)"/>
  </g>
  <g>
    <ellipse class="cls-5" cx="16.37" cy="182.26" rx=".74" ry=".93"/>
    <ellipse class="cls-5" cx="17.3" cy="182.61" rx=".93" ry=".74" transform="translate(-142.9 93.27) rotate(-55.44)"/>
    <ellipse class="cls-5" cx="17.26" cy="183.5" rx=".93" ry=".74" transform="translate(-29.05 5.1) rotate(-9.18)"/>
    <ellipse class="cls-5" cx="17.26" cy="183.5" rx=".74" ry=".93" transform="translate(-162.35 142.13) rotate(-71.65)"/>
    <path class="cls-5" d="M17.17,183.8c0,.51-.33.93-.74.93s-.74-.42-.74-.93.33-.93.74-.93.74.42.74.93Z"/>
    <ellipse class="cls-5" cx="15.88" cy="183.46" rx=".93" ry=".74" transform="translate(-107.08 46.37) rotate(-36.94)"/>
    <ellipse class="cls-5" cx="15.75" cy="182.65" rx=".74" ry=".93" transform="translate(-135.97 79.75) rotate(-50.93)"/>
  </g>
  <g>
    <ellipse class="cls-5" cx="22.3" cy="177.1" rx=".74" ry=".93"/>
    <ellipse class="cls-5" cx="23.23" cy="177.45" rx=".93" ry=".74" transform="translate(-136.09 95.92) rotate(-55.44)"/>
    <ellipse class="cls-5" cx="23.19" cy="178.34" rx=".93" ry=".74" transform="translate(-28.15 5.98) rotate(-9.18)"/>
    <ellipse class="cls-5" cx="23.19" cy="178.34" rx=".74" ry=".93" transform="translate(-153.38 144.22) rotate(-71.65)"/>
    <path class="cls-5" d="M23.1,178.64c0,.51-.33.93-.74.93s-.74-.42-.74-.93.33-.93.74-.93.74.42.74.93Z"/>
    <ellipse class="cls-5" cx="21.8" cy="178.3" rx=".93" ry=".74" transform="translate(-102.78 48.9) rotate(-36.94)"/>
    <ellipse class="cls-5" cx="21.68" cy="177.49" rx=".74" ry=".93" transform="translate(-129.77 82.45) rotate(-50.93)"/>
  </g>
  <g>
    <ellipse class="cls-5" cx="15.63" cy="177.26" rx=".74" ry=".93"/>
    <ellipse class="cls-5" cx="16.56" cy="177.61" rx=".93" ry=".74" transform="translate(-139.1 90.5) rotate(-55.44)"/>
    <ellipse class="cls-5" cx="16.52" cy="178.5" rx=".93" ry=".74" transform="translate(-28.27 4.92) rotate(-9.18)"/>
    <ellipse class="cls-5" cx="16.52" cy="178.5" rx=".74" ry=".93" transform="translate(-158.11 138) rotate(-71.65)"/>
    <path class="cls-5" d="M16.43,178.8c0,.51-.33.93-.74.93s-.74-.42-.74-.93.33-.93.74-.93.74.42.74.93Z"/>
    <ellipse class="cls-5" cx="15.14" cy="178.46" rx=".93" ry=".74" transform="translate(-104.22 44.93) rotate(-36.94)"/>
    <ellipse class="cls-5" cx="15.01" cy="177.65" rx=".74" ry=".93" transform="translate(-132.36 77.33) rotate(-50.93)"/>
  </g>
  <g>
    <ellipse class="cls-5" cx="10.86" cy="180.32" rx=".74" ry=".93"/>
    <ellipse class="cls-5" cx="11.79" cy="180.67" rx=".93" ry=".74" transform="translate(-143.69 87.89) rotate(-55.44)"/>
    <ellipse class="cls-5" cx="11.75" cy="181.56" rx=".93" ry=".74" transform="translate(-28.81 4.2) rotate(-9.18)"/>
    <ellipse class="cls-5" cx="11.75" cy="181.56" rx=".74" ry=".93" transform="translate(-164.28 135.57) rotate(-71.65)"/>
    <ellipse class="cls-5" cx="10.92" cy="181.86" rx=".74" ry=".93"/>
    <ellipse class="cls-5" cx="10.36" cy="181.52" rx=".93" ry=".74" transform="translate(-107.02 42.67) rotate(-36.94)"/>
    <ellipse class="cls-5" cx="10.24" cy="180.71" rx=".74" ry=".93" transform="translate(-136.5 74.76) rotate(-50.93)"/>
  </g>
  <g>
    <ellipse class="cls-5" cx="7.24" cy="177.57" rx=".74" ry=".93"/>
    <ellipse class="cls-5" cx="8.17" cy="177.92" rx=".93" ry=".74" transform="translate(-142.99 83.72) rotate(-55.44)"/>
    <ellipse class="cls-5" cx="8.13" cy="178.81" rx=".93" ry=".74" transform="translate(-28.42 3.59) rotate(-9.18)"/>
    <ellipse class="cls-5" cx="8.13" cy="178.81" rx=".74" ry=".93" transform="translate(-164.15 130.24) rotate(-71.65)"/>
    <path class="cls-5" d="M8.04,179.11c0,.51-.33.93-.74.93s-.74-.42-.74-.93.33-.93.74-.93.74.42.74.93Z"/>
    <ellipse class="cls-5" cx="6.74" cy="178.77" rx=".93" ry=".74" transform="translate(-106.09 39.94) rotate(-36.94)"/>
    <ellipse class="cls-5" cx="6.62" cy="177.95" rx=".74" ry=".93" transform="translate(-135.7 70.93) rotate(-50.93)"/>
  </g>
  <g>
    <ellipse class="cls-5" cx="11.65" cy="174.41" rx=".74" ry=".93"/>
    <ellipse class="cls-5" cx="12.58" cy="174.76" rx=".93" ry=".74" transform="translate(-138.48 85.99) rotate(-55.44)"/>
    <ellipse class="cls-5" cx="12.54" cy="175.65" rx=".93" ry=".74" transform="translate(-27.86 4.25) rotate(-9.18)"/>
    <ellipse class="cls-5" cx="12.54" cy="175.65" rx=".74" ry=".93" transform="translate(-158.13 132.27) rotate(-71.65)"/>
    <path class="cls-5" d="M12.45,175.95c0,.51-.33.93-.74.93s-.74-.42-.74-.93.33-.93.74-.93.74.42.74.93Z"/>
    <ellipse class="cls-5" cx="11.16" cy="175.61" rx=".93" ry=".74" transform="translate(-103.3 41.96) rotate(-36.94)"/>
    <ellipse class="cls-5" cx="11.04" cy="174.8" rx=".74" ry=".93" transform="translate(-131.62 73.19) rotate(-50.93)"/>
  </g>
  <g>
    <ellipse class="cls-5" cx="19.64" cy="172.29" rx=".74" ry=".93"/>
    <ellipse class="cls-5" cx="20.57" cy="172.64" rx=".93" ry=".74" transform="translate(-133.28 91.65) rotate(-55.44)"/>
    <ellipse class="cls-5" cx="20.53" cy="173.53" rx=".93" ry=".74" transform="translate(-27.42 5.5) rotate(-9.18)"/>
    <ellipse class="cls-5" cx="20.53" cy="173.53" rx=".74" ry=".93" transform="translate(-150.64 138.4) rotate(-71.65)"/>
    <ellipse class="cls-5" cx="19.7" cy="173.83" rx=".74" ry=".93"/>
    <ellipse class="cls-5" cx="19.14" cy="173.49" rx=".93" ry=".74" transform="translate(-100.43 46.34) rotate(-36.94)"/>
    <ellipse class="cls-5" cx="19.02" cy="172.68" rx=".74" ry=".93" transform="translate(-127.02 78.6) rotate(-50.93)"/>
  </g>
  <g>
    <ellipse class="cls-5" cx="3.17" cy="174.25" rx=".74" ry=".93"/>
    <ellipse class="cls-5" cx="4.1" cy="174.6" rx=".93" ry=".74" transform="translate(-142.02 78.94) rotate(-55.44)"/>
    <ellipse class="cls-5" cx="4.06" cy="175.49" rx=".93" ry=".74" transform="translate(-27.94 2.9) rotate(-9.18)"/>
    <ellipse class="cls-5" cx="4.06" cy="175.49" rx=".74" ry=".93" transform="translate(-163.79 124.11) rotate(-71.65)"/>
    <path class="cls-5" d="M3.97,175.79c0,.51-.33.93-.74.93s-.74-.42-.74-.93.33-.93.74-.93.74.42.74.93Z"/>
    <ellipse class="cls-5" cx="2.67" cy="175.45" rx=".93" ry=".74" transform="translate(-104.91 36.83) rotate(-36.94)"/>
    <ellipse class="cls-5" cx="2.55" cy="174.64" rx=".74" ry=".93" transform="translate(-134.63 66.54) rotate(-50.93)"/>
  </g>
  <g>
    <ellipse class="cls-5" cx="7.62" cy="171.09" rx=".74" ry=".93"/>
    <ellipse class="cls-5" cx="8.55" cy="171.43" rx=".93" ry=".74" transform="translate(-137.48 81.23) rotate(-55.44)"/>
    <ellipse class="cls-5" cx="8.51" cy="172.32" rx=".93" ry=".74" transform="translate(-27.38 3.57) rotate(-9.18)"/>
    <ellipse class="cls-5" cx="8.51" cy="172.32" rx=".74" ry=".93" transform="translate(-157.73 126.17) rotate(-71.65)"/>
    <path class="cls-5" d="M8.42,172.62c0,.51-.33.93-.74.93s-.74-.42-.74-.93.33-.93.74-.93.74.42.74.93Z"/>
    <ellipse class="cls-5" cx="7.13" cy="172.28" rx=".93" ry=".74" transform="translate(-102.11 38.87) rotate(-36.94)"/>
    <ellipse class="cls-5" cx="7.01" cy="171.47" rx=".74" ry=".93" transform="translate(-130.53 68.83) rotate(-50.93)"/>
  </g>
  <g>
    <ellipse class="cls-5" cx="14.72" cy="168.9" rx=".74" ry=".93"/>
    <ellipse class="cls-5" cx="15.65" cy="169.25" rx=".93" ry=".74" transform="translate(-132.61 86.13) rotate(-55.44)"/>
    <ellipse class="cls-5" cx="15.61" cy="170.13" rx=".93" ry=".74" transform="translate(-26.94 4.67) rotate(-9.18)"/>
    <ellipse class="cls-5" cx="15.61" cy="170.13" rx=".74" ry=".93" transform="translate(-150.79 131.4) rotate(-71.65)"/>
    <ellipse class="cls-5" cx="14.78" cy="170.44" rx=".74" ry=".93"/>
    <ellipse class="cls-5" cx="14.23" cy="170.1" rx=".93" ry=".74" transform="translate(-99.37 42.7) rotate(-36.94)"/>
    <ellipse class="cls-5" cx="14.1" cy="169.28" rx=".74" ry=".93" transform="translate(-126.21 73.53) rotate(-50.93)"/>
  </g>
  <g>
    <ellipse class="cls-5" cx="22.37" cy="167.04" rx=".74" ry=".93"/>
    <ellipse class="cls-5" cx="23.3" cy="167.39" rx=".93" ry=".74" transform="translate(-127.77 91.63) rotate(-55.44)"/>
    <ellipse class="cls-5" cx="23.26" cy="168.28" rx=".93" ry=".74" transform="translate(-26.55 5.87) rotate(-9.18)"/>
    <ellipse class="cls-5" cx="23.26" cy="168.28" rx=".74" ry=".93" transform="translate(-143.78 137.39) rotate(-71.65)"/>
    <ellipse class="cls-5" cx="22.43" cy="168.58" rx=".74" ry=".93"/>
    <ellipse class="cls-5" cx="21.88" cy="168.24" rx=".93" ry=".74" transform="translate(-96.72 46.92) rotate(-36.94)"/>
    <ellipse class="cls-5" cx="21.75" cy="167.42" rx=".74" ry=".93" transform="translate(-121.94 78.78) rotate(-50.93)"/>
  </g>
  <g>
    <ellipse class="cls-5" cx="4.08" cy="182.26" rx=".74" ry=".93"/>
    <ellipse class="cls-5" cx="5.01" cy="182.61" rx=".93" ry=".74" transform="translate(-148.22 83.15) rotate(-55.44)"/>
    <ellipse class="cls-5" cx="4.97" cy="183.5" rx=".93" ry=".74" transform="translate(-29.21 3.14) rotate(-9.18)"/>
    <ellipse class="cls-5" cx="4.97" cy="183.5" rx=".74" ry=".93" transform="translate(-170.77 130.46) rotate(-71.65)"/>
    <ellipse class="cls-5" cx="4.14" cy="183.8" rx=".74" ry=".93"/>
    <ellipse class="cls-5" cx="3.58" cy="183.46" rx=".93" ry=".74" transform="translate(-109.54 38.99) rotate(-36.94)"/>
    <ellipse class="cls-5" cx="3.46" cy="182.65" rx=".74" ry=".93" transform="translate(-140.52 70.21) rotate(-50.93)"/>
  </g>
  <g>
    <ellipse class="cls-5" cx="14.53" cy="186.13" rx=".74" ry=".93"/>
    <ellipse class="cls-5" cx="15.46" cy="186.47" rx=".93" ry=".74" transform="translate(-146.88 93.42) rotate(-55.44)"/>
    <ellipse class="cls-5" cx="15.42" cy="187.36" rx=".93" ry=".74" transform="translate(-29.69 4.86) rotate(-9.18)"/>
    <ellipse class="cls-5" cx="15.42" cy="187.36" rx=".74" ry=".93" transform="translate(-167.28 143.02) rotate(-71.65)"/>
    <path class="cls-5" d="M15.32,187.66c0,.51-.33.93-.74.93s-.74-.42-.74-.93.33-.93.74-.93.74.42.74.93Z"/>
    <ellipse class="cls-5" cx="14.03" cy="187.32" rx=".93" ry=".74" transform="translate(-109.77 46.04) rotate(-36.94)"/>
    <ellipse class="cls-5" cx="13.91" cy="186.51" rx=".74" ry=".93" transform="translate(-139.65 79.75) rotate(-50.93)"/>
  </g>
  <g>
    <ellipse class="cls-5" cx="15.8" cy="197.01" rx=".74" ry=".93"/>
    <ellipse class="cls-5" cx="16.73" cy="197.36" rx=".93" ry=".74" transform="translate(-155.3 99.19) rotate(-55.44)"/>
    <ellipse class="cls-5" cx="16.69" cy="198.25" rx=".93" ry=".74" transform="translate(-31.41 5.2) rotate(-9.18)"/>
    <ellipse class="cls-5" cx="16.69" cy="198.25" rx=".74" ry=".93" transform="translate(-176.74 151.69) rotate(-71.65)"/>
    <path class="cls-5" d="M16.6,198.55c0,.51-.33.93-.74.93s-.74-.42-.74-.93.33-.93.74-.93.74.42.74.93Z"/>
    <ellipse class="cls-5" cx="15.31" cy="198.21" rx=".93" ry=".74" transform="translate(-116.05 48.99) rotate(-36.94)"/>
    <ellipse class="cls-5" cx="15.18" cy="197.4" rx=".74" ry=".93" transform="translate(-147.63 84.76) rotate(-50.93)"/>
  </g>
  <g>
    <ellipse class="cls-5" cx="11.23" cy="200.59" rx=".74" ry=".93"/>
    <ellipse class="cls-5" cx="12.16" cy="200.93" rx=".93" ry=".74" transform="translate(-160.21 96.97) rotate(-55.44)"/>
    <ellipse class="cls-5" cx="12.12" cy="201.82" rx=".93" ry=".74" transform="translate(-32.04 4.52) rotate(-9.18)"/>
    <ellipse class="cls-5" cx="12.12" cy="201.82" rx=".74" ry=".93" transform="translate(-183.26 149.81) rotate(-71.65)"/>
    <ellipse class="cls-5" cx="11.29" cy="202.12" rx=".74" ry=".93"/>
    <ellipse class="cls-5" cx="10.74" cy="201.78" rx=".93" ry=".74" transform="translate(-119.12 46.96) rotate(-36.94)"/>
    <ellipse class="cls-5" cx="10.62" cy="200.97" rx=".74" ry=".93" transform="translate(-152.1 82.54) rotate(-50.93)"/>
  </g>
  <g>
    <ellipse class="cls-5" cx="4.29" cy="201.05" rx=".74" ry=".93"/>
    <ellipse class="cls-5" cx="5.22" cy="201.4" rx=".93" ry=".74" transform="translate(-163.6 91.46) rotate(-55.44)"/>
    <ellipse class="cls-5" cx="5.18" cy="202.29" rx=".93" ry=".74" transform="translate(-32.21 3.42) rotate(-9.18)"/>
    <ellipse class="cls-5" cx="5.18" cy="202.29" rx=".74" ry=".93" transform="translate(-188.46 143.54) rotate(-71.65)"/>
    <path class="cls-5" d="M5.09,202.59c0,.51-.33.93-.74.93s-.74-.42-.74-.93.33-.93.74-.93.74.42.74.93Z"/>
    <ellipse class="cls-5" cx="3.8" cy="202.25" rx=".93" ry=".74" transform="translate(-120.79 42.89) rotate(-36.94)"/>
    <ellipse class="cls-5" cx="3.67" cy="201.44" rx=".74" ry=".93" transform="translate(-155.02 77.32) rotate(-50.93)"/>
  </g>
  <g>
    <ellipse class="cls-5" cx="22.64" cy="198.55" rx=".74" ry=".93"/>
    <ellipse class="cls-5" cx="23.57" cy="198.9" rx=".93" ry=".74" transform="translate(-153.6 105.48) rotate(-55.44)"/>
    <ellipse class="cls-5" cx="23.53" cy="199.78" rx=".93" ry=".74" transform="translate(-31.57 6.31) rotate(-9.18)"/>
    <ellipse class="cls-5" cx="23.53" cy="199.78" rx=".74" ry=".93" transform="translate(-173.51 159.24) rotate(-71.65)"/>
    <path class="cls-5" d="M23.44,200.09c0,.51-.33.93-.74.93s-.74-.42-.74-.93.33-.93.74-.93.74.42.74.93Z"/>
    <ellipse class="cls-5" cx="22.14" cy="199.75" rx=".93" ry=".74" transform="translate(-115.6 53.41) rotate(-36.94)"/>
    <ellipse class="cls-5" cx="22.02" cy="198.93" rx=".74" ry=".93" transform="translate(-146.3 90.64) rotate(-50.93)"/>
  </g>
  <g>
    <ellipse class="cls-5" cx="20.82" cy="193.24" rx=".74" ry=".93"/>
    <ellipse class="cls-5" cx="21.75" cy="193.58" rx=".93" ry=".74" transform="translate(-150.01 101.69) rotate(-55.44)"/>
    <ellipse class="cls-5" cx="21.71" cy="194.47" rx=".93" ry=".74" transform="translate(-30.75 5.95) rotate(-9.18)"/>
    <ellipse class="cls-5" cx="21.71" cy="194.47" rx=".74" ry=".93" transform="translate(-169.71 153.87) rotate(-71.65)"/>
    <path class="cls-5" d="M21.62,194.77c0,.51-.33.93-.74.93s-.74-.42-.74-.93.33-.93.74-.93.74.42.74.93Z"/>
    <ellipse class="cls-5" cx="20.33" cy="194.43" rx=".93" ry=".74" transform="translate(-112.78 51.25) rotate(-36.94)"/>
    <ellipse class="cls-5" cx="20.21" cy="193.62" rx=".74" ry=".93" transform="translate(-142.85 87.27) rotate(-50.93)"/>
  </g>
</svg>