<?xml version="1.0" encoding="UTF-8"?>
<svg id="Livello_1" data-name="Livello 1" xmlns="http://www.w3.org/2000/svg" viewBox="0 0 176.3 249.98">
  <defs>
    <style>
      .cls-1 {
        fill: #d8bada;
      }

      .cls-1, .cls-2, .cls-3, .cls-4, .cls-5 {
        stroke-miterlimit: 10;
        stroke-width: 2px;
      }

      .cls-1, .cls-2, .cls-3, .cls-5 {
        stroke: #468bbc;
      }

      .cls-2 {
        fill: #d9edfa;
      }

      .cls-3 {
        fill: #468bbc;
      }

      .cls-4 {
        stroke: #d8bada;
      }

      .cls-4, .cls-5 {
        fill: none;
      }
    </style>
  </defs>
  <line class="cls-5" x1="88.15" x2="88.15" y2="36.15"/>
  <line class="cls-5" x1="88.15" y1="149.22" x2="88.15" y2="185.37"/>
  <line class="cls-5" x1="88.15" y1="204.23" x2="88.15" y2="223"/>
  <line class="cls-5" x1="84.87" y1="231.05" x2="84.87" y2="249.82"/>
  <line class="cls-5" x1="88.04" y1="231.21" x2="88.04" y2="249.98"/>
  <line class="cls-5" x1="91.22" y1="231.21" x2="91.22" y2="249.98"/>
  <circle class="cls-1" cx="88.15" cy="194.61" r="9.62"/>
  <circle class="cls-1" cx="88.15" cy="227.88" r="4.56"/>
  <circle class="cls-1" cx="88.15" cy="15.01" r="4.56"/>
  <path class="cls-3" d="M107.02,37.48c-5.71-.58-12.03-.96-18.86-.96s-13.58.4-19.45,1.02c.17-4.46.34-8.92.52-13.39h36.93l.86,13.32h0Z"/>
  <path class="cls-3" d="M68.85,148.8c5.71.58,12.03.96,18.86.96s13.58-.4,19.45-1.02c-.17,4.46-.34,8.92-.52,13.39h-36.93l-.86-13.32h0Z"/>
  <ellipse class="cls-2" cx="88.06" cy="92.69" rx="87.06" ry="56.35"/>
  <ellipse class="cls-5" cx="88.15" cy="93.06" rx="87.15" ry="56.54"/>
  <path class="cls-5" d="M60.04,39.53c-19.99,11.25-32.54,32.11-32.7,54.59-.21,30.61,22.67,48.61,25.26,50.58"/>
  <path class="cls-5" d="M83.71,35c-3.37,3.31-27.59,27.91-24.12,64.5,2.66,28.03,19.88,45.42,24.7,49.98"/>
  <path class="cls-5" d="M92.72,34.71c3.38,3.32,27.72,28.05,24.2,64.79-2.68,27.99-19.85,45.38-24.7,49.98"/>
  <path class="cls-5" d="M116.54,39.53c19.99,11.25,32.54,32.11,32.7,54.59.21,30.61-22.67,48.61-25.26,50.58"/>
  <g>
    <path class="cls-4" d="M73.84,71.6c2.26,2.98,6.37,9.25,7.74,18.26.9,5.96.29,11.04-.48,14.53-.24,1.08-1.21,1.84-2.32,1.8-2.47-.08-4.95-.16-7.42-.25"/>
    <path class="cls-4" d="M73.67,95.5c1.18-.47,3-1.37,4.77-3.06,1.39-1.32,2.27-2.67,2.81-3.67"/>
    <path class="cls-4" d="M72.2,79.96c1.56-.43,4.03-1.33,6.48-3.3,1.58-1.27,2.68-2.61,3.43-3.67"/>
    <path class="cls-4" d="M88.84,107.27v-24.08h18.8c0,8.03.02,16.06.03,24.1"/>
    <path class="cls-4" d="M89.59,93.38h18.38"/>
    <path class="cls-4" d="M89.59,103.26h18.38"/>
    <path class="cls-4" d="M98.25,102.12v-18.38"/>
    <path class="cls-4" d="M91.39,70.26v10.17"/>
    <path class="cls-4" d="M96.27,75.35h-9.76"/>
    <path class="cls-4" d="M103.13,70.26v10.17"/>
    <path class="cls-4" d="M108.01,75.35h-9.76"/>
  </g>
</svg>