<svg width="1279" height="636" viewBox="0 0 1279 636" fill="none" xmlns="http://www.w3.org/2000/svg">
<g opacity="0.38" clip-path="url(#clip0_348_440)">
<path d="M-158.615 507.324L-144.38 493.98L-134.353 497.003L-124.327 477.868L-104.288 448.658L-78.5075 429.512L-35.5293 405.345L3.13437 358.004L43.2413 322.746H81.9049L123.44 301.603L143.493 266.345L209.366 263.322L222.264 274.401L239.446 288.504L260.928 277.425L283.852 293.536L303.906 320.738L331.115 318.719L348.297 334.841L385.532 359.008L399.859 352.972L480.057 404.34L490.084 428.508L524.463 407.353L577.453 346.924L596.063 351.957L627.587 319.723L684.861 301.603L710.641 285.48L737.866 265.341L773.658 239.154L796.583 236.131L823.792 206.921L866.754 172.668L905.433 164.612H924.044L941.241 176.706L958.423 192.818L988.503 203.897L981.333 210.949L1004.26 247.21L1030.04 264.326L1050.08 251.238L1077.3 287.5L1088.76 304.616L1105.94 321.742L1146.04 342.897L1153.2 384.19L1158.93 406.349L1147.47 414.405L1193.31 464.769V478.872L1227.67 466.789L1234.84 509.087V525.198L1207.63 547.357L1191.88 606.793H-251.803L-208.111 528.222L-185.201 526.213L-158.615 507.324Z" fill="url(#paint0_linear_348_440)" fill-opacity="0.5"/>
<path d="M71.7107 511.395L85.9456 498.05L95.9723 501.074L105.999 481.939L126.052 452.729L151.833 433.583L194.796 409.416L233.475 362.075L273.567 326.817H312.246L353.781 305.673L373.834 270.416L439.707 267.393L452.605 278.472L469.787 292.575L491.268 281.495L514.178 297.607L534.231 324.809L561.44 322.789L578.638 338.912L615.873 363.079L630.199 357.042L710.398 408.411L720.425 432.579L754.804 411.424L807.794 350.995L826.404 356.027L857.912 323.794L915.201 305.673L940.982 289.551L968.191 269.412L1004 243.225L1026.92 240.202L1054.13 210.991L1097.1 176.738L1135.76 168.683H1154.38L1171.57 180.777L1188.76 196.889L1218.83 207.968L1211.67 215.019L1234.58 251.281L1260.36 268.397L1280.42 255.309L1307.63 291.571L1319.1 308.686L1336.28 325.813L1376.39 346.967L1383.54 388.261L1389.27 410.42L1377.81 418.476L1423.65 468.84V482.943L1458.01 470.86L1465.18 513.158V529.269L1437.96 551.428L1422.2 610.863H-21.4619L22.2151 532.293L45.1399 530.284L71.7107 511.395Z" fill="url(#paint1_linear_348_440)" fill-opacity="0.5"/>
</g>
<defs>
<linearGradient id="paint0_linear_348_440" x1="491.512" y1="117.784" x2="491.512" y2="1163.28" gradientUnits="userSpaceOnUse">
<stop offset="0.11" stop-color="#6AC8F1"/>
<stop offset="0.91" stop-color="white" stop-opacity="0"/>
</linearGradient>
<linearGradient id="paint1_linear_348_440" x1="721.853" y1="121.854" x2="721.853" y2="1167.35" gradientUnits="userSpaceOnUse">
<stop offset="0.11" stop-color="#58AFE3"/>
<stop offset="0.19" stop-color="#61B3E4" stop-opacity="0.94"/>
<stop offset="0.33" stop-color="#7ABFE8" stop-opacity="0.79"/>
<stop offset="0.53" stop-color="#A3D3EF" stop-opacity="0.55"/>
<stop offset="0.77" stop-color="#DBEDF8" stop-opacity="0.21"/>
<stop offset="0.91" stop-color="white" stop-opacity="0"/>
</linearGradient>
<clipPath id="clip0_348_440">
<rect width="1279" height="636" fill="white"/>
</clipPath>
</defs>
</svg>
