<svg width="1280" height="280" viewBox="0 0 1280 280" fill="none" xmlns="http://www.w3.org/2000/svg">
<path d="M-15 280V20.0784C5.55737 12.7515 35.8909 6.16048 62.588 2.46569C122.396 -5.81149 224.948 9.40404 224.948 9.40404C224.948 9.40404 338.545 10.3297 404.55 20.0784C449.175 26.6695 465.711 36.9639 510.874 43.0284C548.544 48.0868 574.746 44.5435 611.451 50.5005C669.289 59.887 666.366 89.6707 729.27 91.5969C769.413 92.8261 787.131 77.1232 826.973 79.3214C867.494 81.557 1075.53 179.74 1104.5 190.5C1236.62 239.581 1280 280 1280 280H-15Z" fill="#799FB9"/>
</svg>
