<svg width="1103" height="381" viewBox="0 0 1103 381" fill="none" xmlns="http://www.w3.org/2000/svg">
<path d="M-12 381V27.321C5.69998 17.3511 31.8172 8.38265 54.8035 3.35509C106.298 -7.90778 194.596 12.7962 194.596 12.7962C194.596 12.7962 292.404 14.0557 349.234 27.321C387.656 36.2895 401.894 50.2972 440.78 58.5494C473.213 65.4323 495.773 60.611 527.377 68.7167C577.175 81.4891 574.659 122.016 628.819 124.637C663.382 126.31 678.638 104.943 712.942 107.934C747.83 110.976 872.285 279.106 897.224 293.748C1010.98 360.533 1103 381 1103 381H-12Z" fill="#799FB9"/>
</svg>
