<svg width="31" height="21" viewBox="0 0 31 21" fill="none" xmlns="http://www.w3.org/2000/svg">
<g opacity="0.66">
<path d="M9.16478 13.8574L10.1011 16.8953C10.3114 17.5851 10.3992 18.0666 10.364 18.341C10.8761 16.9696 11.2339 15.4751 11.4374 13.8574H12.5632C12.0791 16.491 11.4407 18.4046 10.6481 19.5984C10.0307 20.5184 9.35421 20.9784 8.61758 20.9784C8.42118 20.9784 8.17905 20.919 7.89173 20.8012V20.1664C8.03211 20.187 8.1968 20.198 8.38622 20.198C8.7298 20.1979 9.00691 20.1028 9.21756 19.9126C9.46986 19.681 9.59616 19.4207 9.59616 19.1322C9.59616 18.9352 9.49765 18.5309 9.30155 17.9193L7.99703 13.8574H9.16478ZM1.99909 11.9902L3.71399 17.2225H3.72458L5.45001 11.9902H6.85972C7.1684 14.5851 7.35072 16.9593 7.40668 19.1113H6.21817C6.17629 17.0997 6.0606 15.2079 5.87109 13.4359H5.86074L4.05089 19.1113H3.14579L1.34689 13.4359H1.3363C1.20292 15.1377 1.11876 17.0295 1.08382 19.1113H0C0.0700401 16.5793 0.245321 14.2058 0.525842 11.9902H1.99909Z" fill="#00758F"/>
<path d="M21.2106 11.8843C23.0553 11.8843 23.9777 13.0629 23.9777 15.4188C23.9777 16.699 23.7003 17.666 23.1461 18.3193C23.0462 18.4387 22.9358 18.5418 22.8195 18.6374L24.1249 19.2828L24.1237 19.2828L23.6602 20.0832L21.9601 19.0912C21.6783 19.1747 21.3684 19.2164 21.0304 19.2164C20.1247 19.2164 19.4481 18.9524 19.0008 18.4251C18.5098 17.8418 18.2644 16.9236 18.2644 15.6719C18.2644 14.3989 18.5413 13.4355 19.0957 12.7814C19.6007 12.183 20.3058 11.8843 21.2106 11.8843ZM15.5617 11.8946C16.221 11.8946 16.8205 12.0711 17.3605 12.4226L17.0862 13.0338C16.6242 12.8374 16.1686 12.7388 15.7193 12.7388C15.3548 12.7388 15.0739 12.8265 14.8781 13.0031C14.6813 13.178 14.5595 13.4032 14.5595 13.6777C14.5595 14.0995 14.86 14.4653 15.4148 14.7743C15.5966 14.8737 15.7777 14.9742 15.9582 15.0759L15.9996 15.0991L16.0204 15.1108L16.0618 15.1341L16.0825 15.1458L16.1239 15.1691C16.5439 15.4059 16.9392 15.6319 16.9392 15.6319C17.4939 16.0257 17.7705 16.4456 17.7705 17.1372C17.7705 17.7411 17.5492 18.2369 17.108 18.6248C16.6665 19.011 16.0734 19.2046 15.3306 19.2046C14.636 19.2046 13.9627 18.9817 13.3105 18.5397L13.6156 17.928C14.1768 18.2093 14.6847 18.3498 15.1407 18.3498C15.5684 18.3498 15.9032 18.2543 16.1454 18.0657C16.3871 17.8758 16.532 17.6108 16.532 17.2749C16.532 16.8521 16.2379 16.4906 15.6983 16.1874C15.5294 16.0941 15.361 15.9999 15.1931 15.9048L15.1518 15.8814C15.0759 15.8385 14.9994 15.795 14.9245 15.7525L14.8839 15.7294C14.5195 15.5222 14.2045 15.3411 14.2045 15.3411C13.6651 14.9465 13.3947 14.5232 13.3947 13.8257C13.3947 13.2489 13.5964 12.7826 13.9992 12.4279C14.4029 12.0724 14.9238 11.8946 15.5617 11.8946ZM26.1456 11.9899V18.2351H28.3863V19.111H25.0092V11.99L26.1456 11.9899ZM29.6314 18.2378V18.3858H29.3851V19.1103H29.1967V18.3858H28.9408V18.2378H29.6314ZM30.0863 18.2378L30.3228 18.8325L30.5401 18.2378H30.8071V19.1103H30.6296V18.4463L30.3823 19.1103H30.2543L30.0066 18.4463H29.9971V19.1103H29.8291V18.2378H30.0863ZM21.0946 12.7601C20.0076 12.7601 19.4637 13.6572 19.4637 15.4504C19.4637 16.4775 19.6078 17.2223 19.8955 17.6865C20.162 18.1162 20.5793 18.3306 21.1475 18.3306C22.2345 18.3306 22.7783 17.4264 22.7783 15.619C22.7783 14.6062 22.6342 13.8678 22.3469 13.4033C22.0801 12.9747 21.663 12.7601 21.0947 12.7601" fill="#F29111"/>
<path d="M18.2456 0.441245C18.6062 -0.444847 19.8671 0.22619 20.3564 0.535715C20.4763 0.613156 20.6139 0.776763 20.7514 0.837236C20.9659 0.84566 21.1802 0.862448 21.3951 0.871414C21.7981 0.966125 22.1756 1.04351 22.4932 1.22438C23.9691 2.09357 24.9299 2.9793 25.8141 4.44232C26.0031 4.7522 26.0975 5.08754 26.2518 5.42288C26.466 5.92273 26.7067 6.44743 26.9553 6.92008C27.0667 7.14416 27.1528 7.39333 27.3073 7.58257C27.3677 7.6691 27.5391 7.69461 27.6416 7.7463C27.9249 7.89294 28.2681 8.00425 28.5345 8.17635C29.0321 8.48659 29.5132 8.85629 29.9505 9.23477C30.1135 9.38087 30.2246 9.58768 30.3799 9.7422V9.82018C30.242 9.86248 30.1047 9.90581 29.9672 9.94053C29.6669 10.0177 29.4008 10.0002 29.1095 10.0774C28.9295 10.1296 28.7059 10.1985 28.5171 10.2161L28.5345 10.2336C28.6456 10.551 29.2466 10.8092 29.5215 10.999C29.8553 11.2399 30.1647 11.5321 30.4137 11.8677C30.4996 11.9533 30.5856 12.0313 30.6712 12.1166C30.731 12.2032 30.7479 12.3151 30.8084 12.3922V12.4183C30.7414 12.3947 30.6932 12.3496 30.6475 12.3024L30.6202 12.2739C30.593 12.2457 30.5655 12.2179 30.5341 12.1949C30.3447 12.0656 30.1566 11.9108 29.9672 11.7905C29.6415 11.5839 29.2638 11.464 28.9295 11.2565C28.7404 11.1361 28.5602 10.999 28.38 10.8612C28.2166 10.7405 28.0367 10.5085 27.934 10.3365C27.8736 10.2414 27.8653 10.1296 27.7962 10.0609C27.8085 9.946 27.9138 9.91188 28.02 9.88384L28.0444 9.87741C28.081 9.8679 28.1169 9.85839 28.1482 9.84582C28.5943 9.65639 29.1262 9.58768 29.813 9.60489C29.7871 9.43243 29.3579 9.21756 29.2209 9.11431C28.9459 8.9161 28.6548 8.70929 28.3631 8.52889C28.2085 8.43442 27.9421 8.36547 27.7708 8.28827C27.5391 8.19355 27.0241 8.0989 26.8957 7.91851C26.6776 7.63414 26.5209 7.29495 26.3688 6.95233L26.3274 6.85882L26.2859 6.76537C26.1061 6.35278 25.8827 5.92261 25.7025 5.50014C25.6083 5.29405 25.565 5.11317 25.4618 4.91551C24.8356 3.70256 23.9088 2.68704 22.7851 1.97286C22.4158 1.74048 22.004 1.52542 21.5495 1.37926C21.2919 1.30146 20.9827 1.34449 20.7083 1.28479H20.5277C20.3735 1.24135 20.2448 1.07792 20.1245 0.991758C19.8588 0.811362 19.5928 0.690236 19.2751 0.561529C19.1637 0.509901 18.8458 0.389677 18.7349 0.484328C18.6662 0.501597 18.6313 0.527531 18.6144 0.596488C18.5461 0.699382 18.6062 0.854385 18.6487 0.949276C18.7776 1.22426 18.9576 1.38769 19.1211 1.62007C19.2664 1.82616 19.447 2.05855 19.5501 2.28263C19.7725 2.7643 19.876 3.29797 20.0821 3.77958C20.1586 3.9607 20.2794 4.16679 20.3907 4.33016C20.485 4.45983 20.6564 4.55357 20.7083 4.71772C20.8117 4.88981 20.5535 5.45766 20.4938 5.63799C20.2702 6.34363 20.3136 7.32449 20.571 7.93614L20.5847 7.96839L20.5984 8.00107C20.6924 8.22509 20.793 8.46631 21.0429 8.52895C21.0601 8.51186 21.0429 8.52083 21.077 8.51186C21.1375 8.03843 21.1545 7.58251 21.3177 7.21209C21.412 6.98049 21.6003 6.81676 21.7293 6.6277C21.8154 6.67921 21.8154 6.83451 21.8667 6.93728C21.9783 7.20385 22.0983 7.4961 22.2359 7.76345C22.5185 8.31402 22.8364 8.8478 23.1967 9.32942C23.3173 9.50145 23.4885 9.69081 23.6429 9.84576C23.7117 9.90575 23.7887 9.94041 23.8404 10.0176H23.8573V10.0436C23.5998 9.94871 23.4367 9.68239 23.2314 9.52691C22.8448 9.23465 22.3819 8.79576 22.1155 8.37461C22.004 8.13284 21.8836 7.90112 21.7635 7.66055V7.64316C21.7121 7.71188 21.7293 7.78011 21.7037 7.88409C21.5922 8.31402 21.678 8.80448 21.2919 8.95912C20.8542 9.14024 20.5277 8.66687 20.3907 8.45175C19.9529 7.73775 19.833 6.53323 20.1417 5.56091C20.2103 5.34568 20.2196 5.08754 20.3394 4.91569C20.3135 4.76032 20.1938 4.71784 20.1245 4.62265C20.0044 4.45995 19.9016 4.27041 19.8075 4.08971C19.6269 3.73674 19.4984 3.315 19.3612 2.93645C19.3009 2.78187 19.2837 2.62669 19.2235 2.48035C19.121 2.25699 18.932 2.03291 18.7862 1.83531C18.5888 1.5513 18.0138 1.00084 18.2456 0.441245ZM21.0599 2.12696C21.0829 2.14995 21.1105 2.17004 21.1392 2.18984L21.1737 2.21355C21.2197 2.24544 21.2643 2.27902 21.2917 2.32475C21.335 2.38528 21.343 2.44503 21.3949 2.50568C21.3949 2.71249 21.335 2.84999 21.214 2.93567C21.214 2.93567 21.2057 2.9447 21.1972 2.95312C21.1286 2.81527 21.0685 2.67814 20.9995 2.5404C20.9144 2.42018 20.7941 2.32481 20.7248 2.18743H20.7081V2.17016C20.8117 2.14459 20.9144 2.12696 21.0599 2.12696Z" fill="#00758F"/>
</g>
</svg>
