<svg width="31" height="31" viewBox="0 0 31 31" fill="none" xmlns="http://www.w3.org/2000/svg">
<g opacity="0.66">
<path d="M5.49023 11.3828H29.6291V29.2248H5.49023V11.3828Z" fill="white"/>
<path d="M0.363281 15.478V30.6147H30.6367V0.341309H0.363281V15.478ZM24.7588 14.2671C25.4839 14.4354 26.1429 14.8146 26.6527 15.3569C26.9334 15.6492 27.1773 15.9745 27.3793 16.3257C27.3793 16.3644 26.0715 17.2484 25.2747 17.7425C25.2456 17.7619 25.1294 17.6359 25.001 17.4446C24.8556 17.1936 24.6489 16.9836 24.4003 16.8341C24.1517 16.6846 23.8693 16.6005 23.5794 16.5897C22.6615 16.5267 22.0705 17.0087 22.0754 17.8006C22.068 17.9978 22.1132 18.1933 22.2062 18.3673C22.4072 18.7863 22.7826 19.0358 23.9596 19.5444C26.1272 20.4768 27.0548 21.0919 27.6312 21.9662C28.2754 22.935 28.4183 24.4995 27.9823 25.6572C27.498 26.9165 26.3113 27.7715 24.6329 28.0548C23.8663 28.1427 23.0918 28.1345 22.3273 28.0306C21.1555 27.8375 20.0761 27.2748 19.2466 26.4249C18.9681 26.1173 18.4256 25.3157 18.4595 25.2576C18.5478 25.1917 18.6409 25.1326 18.738 25.0808L19.8594 24.4608L20.7288 23.957L20.9105 24.2258C21.2171 24.6643 21.6072 25.0379 22.0584 25.3254C23.0272 25.834 24.3495 25.7637 25.0034 25.1752C25.223 24.9596 25.36 24.6737 25.3905 24.3675C25.421 24.0613 25.3432 23.754 25.1705 23.4993C24.9284 23.1626 24.444 22.8793 23.0902 22.2883C21.528 21.6151 20.8548 21.1985 20.2396 20.5349C19.8557 20.0969 19.5722 19.5803 19.4089 19.0212C19.2872 18.3824 19.2692 17.7282 19.3556 17.0837C19.6777 15.5749 20.8088 14.5214 22.4605 14.209C23.2254 14.1145 24.0002 14.1357 24.7588 14.2719V14.2671ZM17.653 15.5362V16.7761H13.7223V27.9725H10.9348V16.7737H6.99437V15.5628C6.98202 15.1452 6.99172 14.7273 7.02344 14.3107C7.04281 14.2889 9.44531 14.2889 12.3516 14.2889H17.6385L17.653 15.5362Z" fill="#007ACC"/>
</g>
</svg>
