<svg width="31" height="31" viewBox="0 0 31 31" fill="none" xmlns="http://www.w3.org/2000/svg">
<g opacity="0.66">
<path d="M11.625 3.875H15.5V11.625H11.625C10.5973 11.625 9.61166 11.2167 8.88496 10.49C8.15826 9.76334 7.75 8.77771 7.75 7.75C7.75 6.72229 8.15826 5.73666 8.88496 5.00996C9.61166 4.28326 10.5973 3.875 11.625 3.875Z" fill="#F4511E"/>
<path d="M19.375 11.625H15.5V3.875H19.375C20.4027 3.875 21.3883 4.28326 22.115 5.00996C22.8417 5.73666 23.25 6.72229 23.25 7.75C23.25 8.77771 22.8417 9.76334 22.115 10.49C21.3883 11.2167 20.4027 11.625 19.375 11.625Z" fill="#FF8A65"/>
<path d="M15.5 15.5C15.5 17.6401 17.2349 19.375 19.375 19.375C21.5151 19.375 23.25 17.6401 23.25 15.5C23.25 13.3599 21.5151 11.625 19.375 11.625C17.2349 11.625 15.5 13.3599 15.5 15.5Z" fill="#29B6F6"/>
<path d="M11.625 11.625H15.5V19.375H11.625C10.5973 19.375 9.61166 18.9667 8.88496 18.24C8.15826 17.5133 7.75 16.5277 7.75 15.5C7.75 14.4723 8.15826 13.4867 8.88496 12.76C9.61166 12.0333 10.5973 11.625 11.625 11.625Z" fill="#7C4DFF"/>
<path d="M11.625 19.375H15.5V23.25C15.5 24.2777 15.0917 25.2633 14.365 25.99C13.6383 26.7167 12.6527 27.125 11.625 27.125C10.5973 27.125 9.61166 26.7167 8.88496 25.99C8.15826 25.2633 7.75 24.2777 7.75 23.25C7.75 22.2223 8.15826 21.2367 8.88496 20.51C9.61166 19.7833 10.5973 19.375 11.625 19.375Z" fill="#00E676"/>
</g>
</svg>
