<svg width="31" height="31" viewBox="0 0 31 31" fill="none" xmlns="http://www.w3.org/2000/svg">
<g opacity="0.66">
<path d="M0.34082 0.34082H30.6588V30.6591H0.34082V0.34082Z" fill="#F0DB4F"/>
<path d="M28.1779 23.4281C27.9558 22.0449 27.0539 20.8832 24.3823 19.7998C23.4543 19.3734 22.4197 19.068 22.1113 18.3646C22.0019 17.9553 21.9874 17.7248 22.0566 17.477C22.2555 16.673 23.2152 16.4223 23.976 16.6529C24.4659 16.8171 24.9297 17.1946 25.2094 17.797C26.5177 16.9498 26.515 16.9554 27.4286 16.3731C27.0941 15.8546 26.9156 15.6153 26.6967 15.3935C25.9098 14.5146 24.8377 14.0619 23.123 14.0966L22.2298 14.2121C21.3739 14.4284 20.5582 14.8776 20.0799 15.4799C18.6447 17.1084 19.054 19.9585 20.8004 21.1314C22.5209 22.4227 25.0484 22.7165 25.3712 23.9241C25.6853 25.4024 24.2847 25.8809 22.8926 25.7109C21.8667 25.4976 21.2961 24.9761 20.6793 24.028C19.5439 24.685 19.5439 24.685 18.3766 25.3564C18.6534 25.9616 18.9443 26.2355 19.4083 26.7598C21.6045 28.9875 27.1002 28.878 28.0859 25.5063C28.1258 25.3905 28.3913 24.6184 28.1779 23.4281ZM16.8229 14.2751H13.9872L13.9755 21.6066C13.9755 23.1658 14.0562 24.5952 13.8026 25.0333C13.3878 25.895 12.3127 25.7882 11.8227 25.6211C11.3241 25.376 11.0705 25.0275 10.7767 24.5349C10.6961 24.3934 10.6355 24.2839 10.6152 24.2755L8.30957 25.6874C8.69295 26.4743 9.25773 27.1573 9.98115 27.601C11.0618 28.2495 12.5142 28.4484 14.0332 28.0996C15.0218 27.8117 15.8748 27.2151 16.3214 26.3072C16.967 25.1168 16.8285 23.6761 16.8227 22.0825C16.8372 19.4826 16.8229 16.8832 16.8229 14.2751Z" fill="#323330"/>
</g>
</svg>
